<svg width="20" height="21" viewBox="0 0 20 21" fill="none" xmlns="http://www.w3.org/2000/svg">
<path d="M6 4.5C4.89543 4.5 4 5.39543 4 6.5V14.5C4 15.6046 4.89543 16.5 6 16.5H14C15.1046 16.5 16 15.6046 16 14.5V12C16 11.7239 16.2239 11.5 16.5 11.5C16.7761 11.5 17 11.7239 17 12V14.5C17 16.1569 15.6569 17.5 14 17.5H6C4.34315 17.5 3 16.1569 3 14.5V6.5C3 4.84315 4.34315 3.5 6 3.5H8.5C8.77614 3.5 9 3.72386 9 4C9 4.27614 8.77614 4.5 8.5 4.5H6ZM11 4C11 3.72386 11.2239 3.5 11.5 3.5H16.5C16.7761 3.5 17 3.72386 17 4V9C17 9.27614 16.7761 9.5 16.5 9.5C16.2239 9.5 16 9.27614 16 9V5.20711L11.8536 9.35355C11.6583 9.54882 11.3417 9.54882 11.1464 9.35355C10.9512 9.15829 10.9512 8.84171 11.1464 8.64645L15.2929 4.5H11.5C11.2239 4.5 11 4.27614 11 4Z" fill="white"/>
</svg>
