<svg width="16" height="17" viewBox="0 0 16 17" fill="none" xmlns="http://www.w3.org/2000/svg">
<path d="M4.49999 3.5C3.67157 3.5 3 4.17157 3 5V12C3 12.8284 3.67157 13.5 4.49999 13.5H11.5C12.3284 13.5 12.9999 12.8284 12.9999 12V9.76923C12.9999 9.49309 13.2238 9.26923 13.4999 9.26923C13.7761 9.26923 13.9999 9.49309 13.9999 9.76923V12C13.9999 13.3807 12.8807 14.5 11.5 14.5H4.49999C3.11928 14.5 2 13.3807 2 12V5C2 3.61929 3.11928 2.5 4.49999 2.5H6.73075C7.00689 2.5 7.23074 2.72386 7.23074 3C7.23074 3.27614 7.00689 3.5 6.73075 3.5H4.49999ZM8.76926 3C8.76926 2.72386 8.99311 2.5 9.26925 2.5H13.5C13.7761 2.5 14 2.72386 14 3V7.23077C14 7.50691 13.7761 7.73077 13.5 7.73077C13.2239 7.73077 13 7.50691 13 7.23077V4.20711L9.6228 7.58433C9.42754 7.77959 9.11096 7.77959 8.9157 7.58433C8.72044 7.38906 8.72044 7.07248 8.9157 6.87722L12.2929 3.5H9.26925C8.99311 3.5 8.76926 3.27614 8.76926 3Z" fill="#225524"/>
</svg>
