<svg width="20" height="20" viewBox="0 0 20 20" fill="none" xmlns="http://www.w3.org/2000/svg">
<g clip-path="url(#clip0_9578_1197)">
<path d="M12.5418 4.16732C13.3557 4.32612 14.1038 4.7242 14.6902 5.3106C15.2766 5.897 15.6746 6.64504 15.8334 7.45898M12.5418 0.833984C14.2328 1.02185 15.8098 1.77913 17.0136 2.98149C18.2175 4.18385 18.9768 5.75983 19.1668 7.45065M18.3334 14.1007V16.6007C18.3344 16.8327 18.2868 17.0625 18.1939 17.2751C18.1009 17.4878 17.9645 17.6786 17.7935 17.8355C17.6225 17.9924 17.4206 18.1119 17.2007 18.1862C16.9809 18.2606 16.7479 18.2882 16.5168 18.2673C13.9525 17.9887 11.4893 17.1124 9.32511 15.709C7.31163 14.4295 5.60455 12.7225 4.32511 10.709C2.91676 8.53499 2.04031 6.05981 1.76677 3.48398C1.74595 3.25354 1.77334 3.02128 1.84719 2.802C1.92105 2.58272 2.03975 2.38123 2.19575 2.21034C2.35174 2.03945 2.54161 1.90291 2.75327 1.80942C2.96492 1.71593 3.19372 1.66754 3.42511 1.66732H5.92511C6.32953 1.66334 6.7216 1.80655 7.02824 2.07026C7.33488 2.33397 7.53517 2.70019 7.59177 3.10065C7.69729 3.90071 7.89298 4.68626 8.17511 5.44232C8.28723 5.74059 8.31149 6.06475 8.24503 6.37638C8.17857 6.68802 8.02416 6.97408 7.80011 7.20065L6.74177 8.25898C7.92807 10.3453 9.65549 12.0727 11.7418 13.259L12.8001 12.2007C13.0267 11.9766 13.3127 11.8222 13.6244 11.7557C13.936 11.6893 14.2602 11.7135 14.5584 11.8257C15.3145 12.1078 16.1001 12.3035 16.9001 12.409C17.3049 12.4661 17.6746 12.67 17.9389 12.9819C18.2032 13.2938 18.3436 13.692 18.3334 14.1007Z" stroke="#0F5721" strokeWidth="1.67" strokeLinecap="round" ="round"/>
</g>
<defs>
<clipPath id="clip0_9578_1197">
<rect width="20" height="20" fill="white"/>
</clipPath>
</defs>
</svg>
