<svg width="25" height="24" viewBox="0 0 25 24" fill="none" xmlns="http://www.w3.org/2000/svg">
<g clip-path="url(#clip0_9235_917)">
<path d="M21.5901 4.60987C21.0794 4.09888 20.4729 3.69352 19.8055 3.41696C19.138 3.14039 18.4226 2.99805 17.7001 2.99805C16.9776 2.99805 16.2622 3.14039 15.5948 3.41696C14.9273 3.69352 14.3209 4.09888 13.8101 4.60987L12.7501 5.66987L11.6901 4.60987C10.6584 3.57818 9.25915 2.99858 7.80012 2.99858C6.34109 2.99858 4.94181 3.57818 3.91012 4.60987C2.87843 5.64156 2.29883 7.04084 2.29883 8.49987C2.29883 9.95891 2.87843 11.3582 3.91012 12.3899L4.97012 13.4499L12.7501 21.2299L20.5301 13.4499L21.5901 12.3899C22.1011 11.8791 22.5065 11.2727 22.783 10.6052C23.0596 9.93777 23.2019 9.22236 23.2019 8.49987C23.2019 7.77738 23.0596 7.06198 22.783 6.39452C22.5065 5.72706 22.1011 5.12063 21.5901 4.60987V4.60987Z" stroke="#0F5721" strokeWidth="2" strokeLinecap="round" strokeLinejoin="round"/>
</g>
<defs>
<clipPath id="clip0_9235_917">
<rect width="24" height="24" fill="white" transform="translate(0.75)"/>
</clipPath>
</defs>
</svg>
