<svg xmlns="http://www.w3.org/2000/svg" width="36" height="36" viewBox="0 0 33 32" fill="none">
  <path d="M3.58398 5.66602C3.58398 5.11373 4.0317 4.66602 4.58398 4.66602H5.32834C6.59563 4.66602 7.35442 5.51801 7.78831 6.31001C8.07754 6.83794 8.28675 7.45025 8.45041 8.00462C8.49474 8.00113 8.53964 7.99935 8.58505 7.99935H25.2481C26.355 7.99935 27.1544 9.05857 26.8509 10.1231L24.4139 18.6686C23.9648 20.2436 22.5256 21.3297 20.8878 21.3297H12.957C11.3057 21.3297 9.85812 20.2259 9.42109 18.6335L8.4071 14.9387L6.72897 9.27372L6.72625 9.2638C6.51865 8.5067 6.32381 7.79941 6.03429 7.27094C5.75314 6.75775 5.52901 6.66602 5.32834 6.66602H4.58398C4.0317 6.66602 3.58398 6.2183 3.58398 5.66602ZM10.3478 14.453L11.3498 18.1041C11.5484 18.828 12.2064 19.3297 12.957 19.3297H20.8878C21.6323 19.3297 22.2864 18.836 22.4906 18.1201L24.8064 9.99935H9.0313L10.3294 14.3818C10.3364 14.4055 10.3425 14.4293 10.3478 14.453ZM14.9173 25.3327C14.9173 26.8054 13.7234 27.9993 12.2507 27.9993C10.7779 27.9993 9.58398 26.8054 9.58398 25.3327C9.58398 23.8599 10.7779 22.666 12.2507 22.666C13.7234 22.666 14.9173 23.8599 14.9173 25.3327ZM12.9173 25.3327C12.9173 24.9645 12.6188 24.666 12.2507 24.666C11.8825 24.666 11.584 24.9645 11.584 25.3327C11.584 25.7009 11.8825 25.9993 12.2507 25.9993C12.6188 25.9993 12.9173 25.7009 12.9173 25.3327ZM24.2507 25.3327C24.2507 26.8054 23.0567 27.9993 21.584 27.9993C20.1112 27.9993 18.9173 26.8054 18.9173 25.3327C18.9173 23.8599 20.1112 22.666 21.584 22.666C23.0567 22.666 24.2507 23.8599 24.2507 25.3327ZM22.2507 25.3327C22.2507 24.9645 21.9522 24.666 21.584 24.666C21.2158 24.666 20.9173 24.9645 20.9173 25.3327C20.9173 25.7009 21.2158 25.9993 21.584 25.9993C21.9522 25.9993 22.2507 25.7009 22.2507 25.3327Z" fill="#0F5721"/>
</svg>