<svg width="17" height="16" viewBox="0 0 17 16" fill="none" xmlns="http://www.w3.org/2000/svg">
<path d="M4.74999 3C3.92157 3 3.25 3.67157 3.25 4.5V11.5C3.25 12.3284 3.92157 13 4.74999 13H11.75C12.5784 13 13.2499 12.3284 13.2499 11.5V9.26923C13.2499 8.99309 13.4738 8.76923 13.7499 8.76923C14.0261 8.76923 14.2499 8.99309 14.2499 9.26923V11.5C14.2499 12.8807 13.1307 14 11.75 14H4.74999C3.36928 14 2.25 12.8807 2.25 11.5V4.5C2.25 3.11929 3.36928 2 4.74999 2H6.98075C7.25689 2 7.48074 2.22386 7.48074 2.5C7.48074 2.77614 7.25689 3 6.98075 3H4.74999ZM9.01926 2.5C9.01926 2.22386 9.24311 2 9.51925 2H13.75C14.0261 2 14.25 2.22386 14.25 2.5V6.73077C14.25 7.00691 14.0261 7.23077 13.75 7.23077C13.4739 7.23077 13.25 7.00691 13.25 6.73077V3.70711L9.8728 7.08433C9.67754 7.27959 9.36096 7.27959 9.1657 7.08433C8.97044 6.88906 8.97044 6.57248 9.1657 6.37722L12.5429 3H9.51925C9.24311 3 9.01926 2.77614 9.01926 2.5Z" fill="#0F5721"/>
</svg>
