<svg width="25" height="24" viewBox="0 0 25 24" fill="none" xmlns="http://www.w3.org/2000/svg">
<g clip-path="url(#clip0_9235_898)">
<path d="M17.75 21V19C17.75 17.9391 17.3286 16.9217 16.5784 16.1716C15.8283 15.4214 14.8109 15 13.75 15H5.75C4.68913 15 3.67172 15.4214 2.92157 16.1716C2.17143 16.9217 1.75 17.9391 1.75 19V21M23.75 21V19C23.7493 18.1137 23.4544 17.2528 22.9114 16.5523C22.3684 15.8519 21.6081 15.3516 20.75 15.13M16.75 3.13C17.6104 3.3503 18.373 3.8507 18.9176 4.55231C19.4622 5.25392 19.7578 6.11683 19.7578 7.005C19.7578 7.89317 19.4622 8.75608 18.9176 9.45769C18.373 10.1593 17.6104 10.6597 16.75 10.88M13.75 7C13.75 9.20914 11.9591 11 9.75 11C7.54086 11 5.75 9.20914 5.75 7C5.75 4.79086 7.54086 3 9.75 3C11.9591 3 13.75 4.79086 13.75 7Z" stroke="#0F5721" strokeWidth="2" strokeLinecap="round" strokeLinejoin="round"/>
</g>
<defs>
<clipPath id="clip0_9235_898">
<rect width="24" height="24" fill="white" transform="translate(0.75)"/>
</clipPath>
</defs>
</svg>
